<svg width="643" height="384" viewBox="0 0 643 384" fill="none" xmlns="http://www.w3.org/2000/svg">
<path d="M485.853 268.784L483.014 267.814L483.014 267.814L485.853 268.784ZM382.425 210.904L382.425 207.904L382.425 210.904ZM476.473 377.49L473.478 377.308L476.473 377.49ZM471.765 377.418L474.762 377.289L471.765 377.418ZM598.447 51.378C637.203 78.3473 649.918 120.122 638.147 156.027C626.365 191.967 590.334 221.259 533.233 224.058L532.939 218.065C588.028 215.365 621.575 187.318 632.445 154.158C643.327 120.964 631.771 81.8774 595.02 56.3029L598.447 51.378ZM533.233 224.058C505.085 225.438 489.589 223.601 481.769 221.277C479.798 220.691 478.219 220.047 477.014 219.357C475.905 218.723 474.726 217.836 474.109 216.576C473.769 215.88 473.554 214.961 473.793 213.957C474.033 212.95 474.643 212.227 475.266 211.77C476.398 210.94 477.783 210.787 478.821 210.82C483.265 210.959 489.769 214.645 493.027 223.78C496.273 232.882 496.347 247.343 488.692 269.753L483.014 267.814C490.464 246.002 489.971 233.074 487.376 225.796C484.792 218.551 480.18 216.865 478.633 216.817C478.173 216.803 478.38 216.927 478.817 216.607C479.092 216.405 479.475 215.996 479.63 215.348C479.783 214.705 479.623 214.193 479.499 213.94C479.316 213.565 479.214 213.704 479.991 214.148C480.671 214.537 481.786 215.022 483.479 215.525C490.312 217.556 504.991 219.435 532.939 218.065L533.233 224.058ZM473.478 377.308C475.061 351.289 474.89 310.128 462.869 275.589C456.869 258.351 447.979 242.946 435.058 231.863C422.191 220.826 405.133 213.904 382.425 213.904L382.425 207.904C406.466 207.904 424.935 215.275 438.964 227.309C452.938 239.295 462.313 255.74 468.535 273.617C480.958 309.308 481.062 351.441 479.467 377.672L473.478 377.308ZM382.425 213.904C298.546 213.904 229.503 212.842 174.368 209.437C119.287 206.036 77.8496 200.286 49.3018 190.813C20.8255 181.363 4.23284 167.868 0.702981 148.367C-2.75672 129.253 6.6628 105.637 26.4489 76.7092L31.4012 80.0966C11.6873 108.919 3.60983 130.74 6.60704 147.298C9.53409 163.469 23.3523 175.88 51.1915 185.118C78.9592 194.333 119.742 200.053 174.737 203.449C229.678 206.841 298.567 207.904 382.425 207.904L382.425 213.904ZM488.692 269.753C474.851 310.273 473.658 351.66 474.762 377.289L468.768 377.547C467.647 351.55 468.834 309.326 483.014 267.814L488.692 269.753ZM595.02 56.3029C585.958 49.9967 571.587 43.7586 553 37.9356C534.468 32.1297 511.947 26.7975 486.733 22.2211C436.304 13.0685 375.259 6.96744 314.097 6.10526C252.918 5.24284 191.751 9.62433 141.032 21.3725C90.1557 33.1572 50.4828 52.199 31.4012 80.0966L26.4489 76.7092C46.8672 46.8572 88.4821 27.386 139.678 15.5272C191.032 3.6319 252.722 -0.760513 314.181 0.105861C375.658 0.972475 437.034 7.10292 487.804 16.3176C513.189 20.9248 535.962 26.3102 554.794 32.21C573.571 38.0926 588.632 44.5482 598.447 51.378L595.02 56.3029ZM479.467 377.672C479.29 380.588 477.579 383.929 474.042 383.874C470.536 383.82 468.894 380.468 468.768 377.547L474.762 377.289C474.792 377.991 474.967 378.226 474.952 378.205C474.923 378.167 474.662 377.883 474.135 377.875C473.603 377.867 473.322 378.147 473.281 378.2C473.257 378.231 473.435 378.01 473.478 377.308L479.467 377.672Z" fill="#07A9D2"/>
</svg>
