<svg width="616" height="385" viewBox="0 0 616 385" fill="none" xmlns="http://www.w3.org/2000/svg">
<path d="M190.287 268.755L187.448 267.785L187.448 267.785L190.287 268.755ZM86.8595 210.875L87.0305 207.88L86.8595 210.875ZM180.911 377.85L183.905 378.031L180.911 377.85ZM176.216 377.761L173.219 377.893L176.216 377.761ZM572.04 34.9738C610.796 61.9431 623.511 103.718 611.74 139.623C599.958 175.563 563.927 204.855 506.826 207.654L506.532 201.661C561.622 198.96 595.168 170.913 606.039 137.754C616.921 104.559 605.364 65.4732 568.613 39.8987L572.04 34.9738ZM506.826 207.654C478.65 209.035 446.614 208.196 414.102 207.555C381.53 206.912 348.446 206.464 317.95 208.594C287.424 210.727 259.738 215.428 237.891 224.951C216.119 234.44 200.334 248.622 193.126 269.724L187.448 267.785C195.346 244.665 212.639 229.412 235.493 219.45C258.272 209.522 286.76 204.758 317.532 202.609C348.333 200.458 381.67 200.913 414.22 201.556C446.829 202.2 478.613 203.03 506.532 201.661L506.826 207.654ZM177.916 377.668C179.45 352.36 179.175 312.43 167.114 278.283C161.095 261.241 152.193 245.793 139.26 234.297C126.37 222.839 109.317 215.162 86.6886 213.87L87.0305 207.88C110.938 209.245 129.295 217.411 143.246 229.812C157.155 242.176 166.527 258.604 172.772 276.285C185.239 311.583 185.453 352.484 183.905 378.031L177.916 377.668ZM86.6886 213.87C38.4801 211.119 8.11581 181.176 1.40716 145.248C-5.29527 109.354 11.723 68.1673 56.6526 42.9893L59.5857 48.2235C16.6482 72.2852 1.12604 111.055 7.30522 144.147C13.4782 177.206 41.4177 205.277 87.0305 207.88L86.6886 213.87ZM193.126 269.724C179.219 310.439 178.081 352.03 179.213 377.628L173.219 377.893C172.071 351.928 173.201 309.497 187.448 267.785L193.126 269.724ZM568.613 39.8987C559.583 33.6149 546.252 28.1574 529.454 23.5762C512.697 19.0066 492.683 15.3595 470.427 12.5988C425.916 7.0776 372.639 5.1263 318.926 6.35175C265.217 7.57712 211.15 11.977 165.063 19.1324C118.859 26.3058 81.0477 36.1965 59.5857 48.2235L56.6526 42.9893C79.1241 30.3966 117.867 20.3881 164.142 13.2034C210.534 6.00071 264.868 1.58353 318.79 0.353315C372.707 -0.876803 426.288 1.07778 471.165 6.64439C493.603 9.42758 513.916 13.1198 531.032 17.7876C548.106 22.4438 562.193 28.1216 572.04 34.9738L568.613 39.8987ZM183.905 378.031C183.729 380.938 182.022 384.287 178.477 384.218C174.983 384.149 173.347 380.806 173.219 377.893L179.213 377.628C179.244 378.328 179.418 378.565 179.405 378.548C179.38 378.514 179.122 378.229 178.594 378.219C178.058 378.208 177.77 378.49 177.724 378.549C177.696 378.586 177.874 378.369 177.916 377.668L183.905 378.031Z" fill="#07A9D2"/>
</svg>
