<svg width="613" height="378" viewBox="0 0 613 378" fill="none" xmlns="http://www.w3.org/2000/svg">
<path d="M318.928 262.537L316.089 261.567L316.089 261.567L318.928 262.537ZM215.5 204.657L215.5 201.657L215.5 204.657ZM309.548 371.243L306.553 371.061L309.548 371.243ZM304.84 371.171L301.843 371.301L304.84 371.171ZM568.522 34.9738C607.277 61.9431 619.993 103.718 608.222 139.623C596.44 175.563 560.409 204.855 503.308 207.654L503.014 201.661C558.103 198.96 591.65 170.913 602.52 137.754C613.402 104.559 601.846 65.4732 565.095 39.8987L568.522 34.9738ZM503.308 207.654C475.09 209.037 451.306 207.805 431.11 206.578C410.819 205.345 394.424 204.144 380.59 205.479C366.895 206.801 356.018 210.589 346.715 219.16C337.323 227.814 329.249 241.601 321.767 263.507L316.089 261.567C323.712 239.25 332.196 224.379 342.65 214.748C353.193 205.034 365.451 200.912 380.014 199.507C394.438 198.115 411.424 199.371 431.474 200.589C451.62 201.813 475.137 203.028 503.014 201.661L503.308 207.654ZM306.553 371.061C308.136 345.042 307.965 303.881 295.944 269.342C289.944 252.104 281.054 236.7 268.133 225.616C255.266 214.579 238.208 207.657 215.5 207.657L215.5 201.657C239.54 201.657 258.01 209.028 272.039 221.062C286.013 233.048 295.388 249.493 301.61 267.37C314.033 303.061 314.137 345.194 312.542 371.425L306.553 371.061ZM215.5 207.657C154.799 207.657 108.658 200.775 74.9633 189.577C41.302 178.39 19.7904 162.8 8.8047 145.184C-2.26098 127.44 -2.40413 108.019 5.9169 89.9748C14.1915 72.0317 30.7779 55.5176 53.1342 42.9893L56.0674 48.2235C34.4902 60.3151 18.9723 75.9922 11.3654 92.4874C3.80503 108.882 4.00337 126.146 13.8959 142.009C23.8683 158.001 43.9316 172.941 76.8556 183.883C109.746 194.814 155.201 201.657 215.5 201.657L215.5 207.657ZM321.767 263.507C307.926 304.026 306.733 345.413 307.837 371.042L301.843 371.301C300.722 345.304 301.909 303.079 316.089 261.567L321.767 263.507ZM565.095 39.8987C556.065 33.6149 542.734 28.1574 525.935 23.5762C509.179 19.0066 489.165 15.3595 466.908 12.5988C422.397 7.0776 369.121 5.1263 315.408 6.35175C261.699 7.57712 207.631 11.977 161.544 19.1324C115.341 26.3058 77.5294 36.1965 56.0674 48.2235L53.1342 42.9893C75.6057 30.3966 114.349 20.3881 160.624 13.2034C207.015 6.00071 261.35 1.58353 315.271 0.353315C369.188 -0.876803 422.77 1.07778 467.647 6.64439C490.085 9.42758 510.398 13.1198 527.514 17.7876C544.588 22.4438 558.675 28.1216 568.522 34.9738L565.095 39.8987ZM312.542 371.425C312.365 374.341 310.654 377.683 307.117 377.628C303.611 377.573 301.969 374.221 301.843 371.301L307.837 371.042C307.867 371.744 308.042 371.979 308.027 371.959C307.998 371.92 307.737 371.636 307.21 371.628C306.678 371.62 306.397 371.9 306.356 371.953C306.332 371.984 306.51 371.763 306.553 371.061L312.542 371.425Z" fill="#07A9D2"/>
</svg>
