<svg width="616" height="339" viewBox="0 0 616 339" fill="none" xmlns="http://www.w3.org/2000/svg">
<path d="M190.287 268.755L187.448 267.785L187.448 267.785L190.287 268.755ZM86.8595 210.875L87.0305 207.88L86.8595 210.875ZM179.294 333.642L182.244 334.184L179.294 333.642ZM176.493 334.181L173.584 334.913L176.493 334.181ZM572.04 34.9738C610.796 61.9431 623.511 103.718 611.74 139.623C599.958 175.563 563.927 204.855 506.826 207.654L506.532 201.661C561.622 198.96 595.168 170.913 606.039 137.754C616.921 104.559 605.364 65.4732 568.613 39.8987L572.04 34.9738ZM506.826 207.654C478.65 209.035 446.614 208.196 414.102 207.555C381.53 206.912 348.446 206.464 317.95 208.594C287.424 210.727 259.738 215.428 237.891 224.951C216.119 234.44 200.334 248.622 193.126 269.724L187.448 267.785C195.346 244.665 212.639 229.412 235.493 219.45C258.272 209.522 286.76 204.758 317.532 202.609C348.333 200.458 381.67 200.913 414.22 201.556C446.829 202.2 478.613 203.03 506.532 201.661L506.826 207.654ZM176.343 333.1C178.205 322.964 181.972 294.471 172.175 267.895C167.302 254.674 159.09 241.976 145.628 232.192C132.161 222.405 113.234 215.385 86.6886 213.87L87.0305 207.88C114.48 209.447 134.577 216.743 149.156 227.339C163.74 237.938 172.596 251.69 177.805 265.819C188.172 293.944 184.161 323.752 182.244 334.184L176.343 333.1ZM86.6886 213.87C38.4801 211.119 8.11581 181.176 1.40716 145.248C-5.29527 109.354 11.723 68.1673 56.6526 42.9893L59.5857 48.2235C16.6482 72.2852 1.12604 111.055 7.30522 144.147C13.4782 177.206 41.4177 205.277 87.0305 207.88L86.6886 213.87ZM193.126 269.724C185.71 291.438 181.945 306.173 180.211 316.141C178.466 326.167 178.82 331.134 179.402 333.448L173.584 334.913C172.697 331.39 172.502 325.441 174.299 315.112C176.107 304.725 179.975 289.666 187.448 267.785L193.126 269.724ZM568.613 39.8987C559.583 33.6149 546.252 28.1574 529.454 23.5762C512.697 19.0066 492.683 15.3595 470.427 12.5988C425.916 7.0776 372.639 5.1263 318.926 6.35175C265.217 7.57712 211.15 11.977 165.063 19.1324C118.859 26.3058 81.0477 36.1965 59.5857 48.2235L56.6526 42.9893C79.1241 30.3966 117.867 20.3881 164.142 13.2034C210.534 6.00071 264.868 1.58353 318.79 0.353315C372.707 -0.876803 426.288 1.07778 471.165 6.64439C493.603 9.42758 513.916 13.1198 531.032 17.7876C548.106 22.4438 562.193 28.1216 572.04 34.9738L568.613 39.8987ZM182.244 334.184C181.945 335.815 180.885 337.946 178.604 338.459C177.352 338.74 176.096 338.396 175.15 337.585C174.276 336.836 173.815 335.832 173.584 334.913L179.402 333.448C179.441 333.601 179.415 333.339 179.055 333.03C178.622 332.658 177.958 332.454 177.289 332.604C176.71 332.734 176.431 333.055 176.36 333.15C176.277 333.261 176.312 333.27 176.343 333.1L182.244 334.184Z" fill="#07A9D2"/>
</svg>
